<?xml version="1.0" standalone="no"?>
<!DOCTYPE svg PUBLIC "-//W3C//DTD SVG 20010904//EN"
 "http://www.w3.org/TR/2001/REC-SVG-20010904/DTD/svg10.dtd">
<svg version="1.0" xmlns="http://www.w3.org/2000/svg"
 width="576.000000pt" height="576.000000pt" viewBox="0 0 576.000000 576.000000"
 preserveAspectRatio="xMidYMid meet">
<metadata>
Created by potrace 1.11, written by Peter Selinger 2001-2013
</metadata>
<g transform="translate(0.000000,576.000000) scale(0.100000,-0.100000)"
fill="#000000" stroke="none">
<path d="M2875 5421 c-47 -22 -86 -71 -91 -115 -1 -17 -3 -70 -3 -117 l-1 -85
-62 -13 c-78 -15 -74 -14 -131 -39 -80 -36 -164 -100 -214 -162 -55 -67 -92
-125 -97 -149 -2 -9 -6 -23 -9 -31 -32 -77 -30 -247 3 -335 33 -85 82 -158
144 -214 16 -14 34 -31 40 -36 39 -36 179 -109 227 -119 13 -3 81 -21 150 -40
69 -19 137 -37 150 -40 98 -21 297 -80 311 -93 10 -9 21 -32 24 -51 6 -31 3
-39 -25 -64 l-32 -29 -223 1 c-171 1 -234 5 -267 16 -92 32 -127 21 -228 -76
-35 -33 -78 -73 -96 -88 -69 -61 -83 -119 -43 -177 33 -48 211 -125 325 -141
l51 -6 1 -97 c1 -53 3 -105 5 -116 3 -11 5 -23 5 -26 2 -12 57 -67 80 -78 25
-14 171 -31 171 -21 0 4 23 4 50 0 28 -4 50 -2 50 2 0 5 4 7 10 3 12 -7 69 17
96 41 43 38 54 77 54 187 l0 103 63 13 c34 7 67 13 72 14 6 2 46 20 90 42 133
65 247 197 292 334 20 63 24 210 7 276 -43 162 -153 293 -314 371 -84 41 -115
51 -280 94 -47 12 -123 33 -170 45 -47 13 -96 26 -110 29 -71 15 -147 39 -162
53 -39 35 -29 110 18 132 16 7 101 11 238 11 181 0 221 -3 267 -19 30 -10 63
-17 73 -15 63 9 65 11 190 128 17 15 45 40 61 55 67 58 82 114 48 172 -29 49
-209 127 -330 144 l-53 7 -1 101 c-1 123 -2 129 -28 166 -39 55 -92 71 -232
71 -99 0 -132 -4 -164 -19z"/>
<path d="M1916 2243 c-2 -2 -37 -6 -77 -8 -41 -2 -84 -6 -95 -9 -12 -2 -38 -7
-59 -10 -80 -13 -208 -59 -303 -108 -96 -50 -164 -98 -288 -200 -56 -45 -116
-94 -134 -108 -18 -14 -38 -30 -44 -35 -25 -24 -160 -131 -185 -147 -20 -13
-49 -17 -116 -17 -128 0 -157 -1 -165 -6 -3 -2 -12 0 -19 4 -7 5 -28 5 -46 1
-18 -4 -38 -4 -44 0 -7 4 -32 4 -56 0 -25 -4 -45 -4 -45 -1 0 9 -133 -4 -151
-14 -8 -4 -25 -17 -37 -29 -52 -46 -52 -51 -52 -596 0 -489 4 -570 30 -570 5
0 11 -9 15 -19 3 -11 24 -26 46 -35 36 -14 218 -16 1869 -16 1846 0 1870 0
1976 35 78 26 238 126 252 157 2 5 8 8 12 8 5 0 20 10 33 22 26 24 32 29 187
152 52 42 100 79 105 84 6 4 44 34 85 67 41 33 77 62 80 65 3 3 25 21 50 40
25 19 47 37 50 40 4 4 143 114 208 165 7 5 21 17 30 26 9 8 37 31 62 50 25 18
54 41 65 51 11 9 67 54 125 100 58 45 107 86 108 91 2 4 8 7 13 7 5 0 17 8 27
18 23 21 54 47 112 92 25 19 50 39 56 45 6 5 32 28 58 49 25 21 46 45 46 52 0
7 4 14 10 16 5 2 19 30 31 62 73 209 -83 427 -302 421 -60 -2 -137 -24 -174
-49 -16 -12 -135 -105 -265 -208 -129 -103 -239 -191 -245 -195 -5 -5 -39 -32
-75 -61 -71 -58 -74 -61 -140 -112 -25 -19 -52 -40 -60 -47 -241 -195 -277
-219 -390 -254 -36 -11 -99 -22 -140 -25 -68 -4 -107 -5 -252 -4 -26 0 -50 0
-55 -1 -4 -1 -12 -1 -18 0 -5 1 -57 2 -115 1 -58 0 -112 -1 -120 -1 -8 0 -33
0 -55 0 -22 0 -47 0 -55 0 -74 2 -113 0 -120 -4 -5 -3 -11 -2 -14 3 -3 5 -28
6 -56 2 -27 -4 -50 -4 -50 -1 0 3 -26 5 -57 4 -156 -7 -183 -8 -183 -3 0 3
-30 5 -66 4 -57 -1 -71 3 -106 28 -48 35 -67 77 -64 139 1 33 10 57 30 83 42
56 77 66 226 63 72 -1 130 2 130 6 0 5 4 6 9 3 7 -5 54 -7 126 -5 22 0 174 1
190 0 6 0 42 0 80 -1 39 -1 75 -1 80 0 6 2 13 2 16 2 146 -19 295 58 359 185
21 40 25 62 24 133 -1 101 -23 158 -88 224 -64 64 -125 89 -223 90 -46 1 -83
3 -83 6 0 3 -26 4 -57 2 -32 -1 -65 -3 -73 -3 -109 0 -178 0 -190 0 -63 2
-102 1 -108 -3 -5 -3 -14 -1 -21 3 -7 5 -28 5 -46 1 -18 -4 -38 -4 -44 0 -7 4
-32 4 -56 0 -25 -4 -45 -4 -45 -1 0 3 -26 5 -57 3 -67 -3 -58 -3 -170 -2 -49
1 -92 1 -98 0 -5 -1 -13 -2 -17 -1 -9 2 -134 3 -145 1 -9 -1 -154 1 -246 3
-31 1 -57 -1 -57 -4 0 -3 -20 -3 -45 1 -25 4 -47 5 -49 3z"/>
</g>
</svg>
